#define test.xbm_width 128
#define test.xbm_height 128
#define test.xbm_x_hot 0
#define test.xbm_y_hot 0
static unsigned char test.xbm_bits[] = {
   0x00, 0x00, 0x00, 0x00, 0x00, 0x00, 0x00, 0x00, 0x00, 0x00, 0x00, 0x00,
   0xe0, 0xff, 0xff, 0xff, 0xfe, 0xff, 0xff, 0xff, 0xff, 0xff, 0xff, 0xff,
   0xff, 0xff, 0xff, 0xff, 0xef, 0xff, 0xff, 0xff, 0xfe, 0xff, 0xff, 0xff,
   0xff, 0xff, 0xff, 0xff, 0xff, 0xff, 0xff, 0xff, 0xef, 0xff, 0xff, 0xff,
   0xfe, 0xff, 0xff, 0xff, 0xff, 0xff, 0xff, 0xff, 0xff, 0xff, 0xff, 0xff,
   0xef, 0xff, 0xff, 0xff, 0xfe, 0xff, 0xff, 0xff, 0xff, 0xff, 0xff, 0xff,
   0xff, 0xff, 0xff, 0xff, 0xef, 0xff, 0xff, 0xff, 0xfe, 0xff, 0xff, 0xff,
   0xff, 0xff, 0xff, 0xff, 0xff, 0xff, 0xff, 0xff, 0xef, 0xff, 0xff, 0xff,
   0xfe, 0xff, 0xff, 0xff, 0xff, 0xff, 0xff, 0xff, 0xff, 0xff, 0xff, 0xff,
   0xef, 0xff, 0xff, 0xff, 0xfe, 0xff, 0xff, 0xff, 0xff, 0xff, 0xff, 0xff,
   0xff, 0xff, 0xff, 0xff, 0xef, 0xff, 0xff, 0xff, 0xfe, 0xff, 0xff, 0xff,
   0xff, 0xff, 0xff, 0xff, 0xff, 0xff, 0xff, 0xff, 0xef, 0xff, 0xff, 0xff,
   0xfe, 0xff, 0xff, 0xff, 0xff, 0xff, 0xff, 0xff, 0xff, 0xff, 0xff, 0xff,
   0xef, 0xff, 0xff, 0xff, 0xfe, 0xff, 0xff, 0xff, 0xff, 0xff, 0xff, 0xff,
   0xff, 0xff, 0xff, 0xff, 0xff, 0xff, 0xff, 0xff, 0xfe, 0xff, 0xff, 0xff,
   0xff, 0xff, 0xff, 0xff, 0xff, 0xff, 0xff, 0xff, 0xef, 0xff, 0xff, 0xff,
   0xfe, 0xff, 0xff, 0xff, 0xff, 0xff, 0xff, 0xff, 0xff, 0xff, 0xff, 0xff,
   0xef, 0xff, 0xff, 0xff, 0xfe, 0xff, 0xff, 0xff, 0xff, 0xff, 0xff, 0xff,
   0xff, 0xff, 0xff, 0xff, 0xef, 0xff, 0xff, 0xff, 0xfe, 0xff, 0xff, 0xff,
   0xff, 0xff, 0xff, 0xff, 0xff, 0xff, 0xff, 0xff, 0xef, 0xff, 0xff, 0xff,
   0xfe, 0xff, 0xff, 0xff, 0xff, 0xff, 0xff, 0xff, 0xff, 0xff, 0xff, 0xff,
   0xef, 0xff, 0xff, 0xff, 0xfe, 0xff, 0xff, 0xff, 0xff, 0xff, 0xff, 0xff,
   0xff, 0xff, 0xff, 0xff, 0xef, 0xff, 0xff, 0xff, 0xfe, 0xff, 0xff, 0xff,
   0xff, 0xff, 0xff, 0xff, 0xff, 0xff, 0xff, 0xff, 0xef, 0xff, 0xff, 0xff,
   0xfe, 0xff, 0xff, 0xff, 0xff, 0xff, 0xff, 0xff, 0xff, 0xff, 0xff, 0xff,
   0xef, 0xff, 0xff, 0xff, 0xfe, 0xff, 0xff, 0xff, 0xff, 0xff, 0xff, 0xff,
   0xff, 0xff, 0xff, 0xff, 0xff, 0xff, 0xff, 0xff, 0xfe, 0xff, 0xff, 0xff,
   0xff, 0xff, 0xff, 0xff, 0xff, 0xff, 0xff, 0xff, 0xff, 0xff, 0xff, 0xff,
   0xfe, 0xff, 0xff, 0xff, 0xff, 0xff, 0xff, 0xff, 0xff, 0xff, 0xff, 0xff,
   0xef, 0xff, 0xff, 0xff, 0xfe, 0xff, 0xff, 0xff, 0xff, 0xff, 0xff, 0xff,
   0xff, 0xff, 0xff, 0xff, 0xef, 0xff, 0xff, 0xff, 0xfe, 0xff, 0xff, 0xff,
   0xff, 0xff, 0xff, 0xff, 0xff, 0xff, 0xff, 0xff, 0xef, 0xff, 0xff, 0xff,
   0xfe, 0xff, 0xff, 0xff, 0xff, 0xff, 0xff, 0xff, 0xff, 0xff, 0xff, 0xff,
   0xef, 0xff, 0xff, 0xff, 0xfe, 0xff, 0xff, 0xff, 0xff, 0xff, 0xff, 0xff,
   0xff, 0xff, 0xff, 0xff, 0xef, 0xff, 0xff, 0xff, 0xfe, 0xff, 0xff, 0xff,
   0xff, 0xff, 0xff, 0xff, 0xff, 0xff, 0xff, 0xff, 0xef, 0xff, 0xff, 0xff,
   0xfe, 0xff, 0xff, 0xff, 0xff, 0xff, 0xff, 0xff, 0xff, 0xff, 0xff, 0xff,
   0xef, 0xff, 0xff, 0xff, 0xfe, 0xff, 0xff, 0xff, 0xff, 0xff, 0xff, 0xff,
   0xff, 0xff, 0xff, 0xff, 0xef, 0xff, 0xff, 0xff, 0xfe, 0xff, 0xff, 0xff,
   0xff, 0xff, 0xff, 0xff, 0xff, 0xff, 0xff, 0xff, 0xff, 0xff, 0xff, 0xff,
   0xfe, 0xff, 0xff, 0xff, 0xff, 0xff, 0xff, 0xff, 0xff, 0xff, 0xff, 0xff,
   0xff, 0xff, 0xff, 0xff, 0xfe, 0xff, 0xff, 0xff, 0xff, 0xff, 0xff, 0xff,
   0xff, 0xff, 0xff, 0xff, 0xff, 0xff, 0xff, 0xff, 0xfe, 0xff, 0xff, 0xff,
   0xff, 0xff, 0xff, 0xff, 0xff, 0xff, 0xff, 0xff, 0xef, 0xff, 0xff, 0xff,
   0xfe, 0xff, 0xff, 0xff, 0xff, 0xff, 0xff, 0xff, 0xff, 0xff, 0xff, 0xff,
   0xef, 0xff, 0xff, 0xff, 0xfe, 0xff, 0xff, 0xff, 0xff, 0xff, 0xff, 0xff,
   0xff, 0xff, 0xff, 0xff, 0xef, 0xff, 0xff, 0xff, 0xfe, 0xff, 0xff, 0xff,
   0xff, 0xff, 0xff, 0xff, 0xff, 0xff, 0xff, 0xff, 0xef, 0xff, 0xff, 0xff,
   0xfe, 0xff, 0xff, 0xff, 0xff, 0xff, 0xff, 0xff, 0xff, 0xff, 0xff, 0xff,
   0xef, 0xff, 0xff, 0xff, 0xfe, 0xff, 0xff, 0xff, 0xff, 0xff, 0xff, 0xff,
   0xff, 0xff, 0xff, 0xff, 0xef, 0xff, 0xff, 0xff, 0xfe, 0xff, 0xff, 0xff,
   0xff, 0x00, 0x00, 0x00, 0x00, 0x00, 0x00, 0x00, 0x00, 0x00, 0x00, 0x00,
   0xfe, 0xff, 0xff, 0xff, 0x7f, 0x00, 0x00, 0x00, 0x00, 0x00, 0x00, 0x00,
   0x00, 0x00, 0x00, 0x00, 0xfe, 0xff, 0xff, 0xff, 0x3f, 0x00, 0x00, 0x00,
   0x00, 0x00, 0x00, 0x00, 0x00, 0x00, 0x00, 0x00, 0xfe, 0xff, 0xff, 0xff,
   0x3f, 0x00, 0x00, 0x00, 0x00, 0x00, 0x00, 0x00, 0x00, 0x00, 0x00, 0x00,
   0xfe, 0xff, 0xff, 0xff, 0x3f, 0xfc, 0xff, 0xff, 0xff, 0xff, 0xff, 0xff,
   0xef, 0xff, 0xff, 0xff, 0xfe, 0xff, 0xff, 0xff, 0x3f, 0xfc, 0xff, 0xff,
   0xff, 0xff, 0xff, 0xff, 0xef, 0xff, 0xff, 0xff, 0xfe, 0xff, 0xff, 0xff,
   0x3f, 0xfc, 0xff, 0xff, 0xff, 0xff, 0xff, 0xff, 0xef, 0xff, 0xff, 0xff,
   0xfe, 0xff, 0xff, 0xff, 0x3f, 0xfc, 0xff, 0xff, 0xff, 0xff, 0xff, 0xff,
   0xef, 0xff, 0xff, 0xff, 0xfe, 0xff, 0xff, 0xff, 0x3f, 0xfc, 0xff, 0xff,
   0xff, 0xff, 0xff, 0xff, 0xef, 0xff, 0xff, 0xff, 0xfe, 0xff, 0xff, 0xff,
   0x3f, 0xfc, 0xff, 0xff, 0xff, 0xff, 0xff, 0xff, 0xef, 0xff, 0xff, 0xff,
   0xfe, 0xff, 0xff, 0xff, 0x3f, 0xfc, 0x03, 0x00, 0x00, 0x00, 0x00, 0x00,
   0x00, 0x00, 0x00, 0x00, 0xfe, 0xff, 0xff, 0xff, 0x3f, 0xfc, 0x01, 0x00,
   0x00, 0x00, 0x00, 0x00, 0x00, 0x00, 0x00, 0x00, 0xfe, 0xff, 0xff, 0xff,
   0x3f, 0xfc, 0x00, 0x00, 0x00, 0x00, 0x00, 0x00, 0x00, 0x00, 0x00, 0x00,
   0xfe, 0xff, 0xff, 0xff, 0x3f, 0xfc, 0x00, 0x00, 0x00, 0x00, 0x00, 0x00,
   0x00, 0x00, 0x00, 0x00, 0xfe, 0xff, 0xff, 0xff, 0x3f, 0xfc, 0x00, 0x00,
   0x00, 0x00, 0x00, 0x00, 0x00, 0x00, 0x00, 0x00, 0xfe, 0xff, 0xff, 0xff,
   0x3f, 0xfc, 0xe0, 0xff, 0xff, 0xff, 0xff, 0xff, 0xef, 0xff, 0xff, 0xff,
   0xfe, 0xff, 0xff, 0xff, 0x3f, 0xfc, 0xe0, 0xff, 0xff, 0xff, 0xff, 0xff,
   0xef, 0xff, 0xff, 0xff, 0xfe, 0xff, 0xff, 0xff, 0x3f, 0xfc, 0xe0, 0xff,
   0xff, 0xff, 0xff, 0xff, 0xef, 0xff, 0xff, 0xff, 0xfe, 0xff, 0xff, 0xff,
   0x3f, 0xfc, 0xe0, 0xff, 0xff, 0xff, 0xff, 0xff, 0xef, 0xff, 0xff, 0xff,
   0xfe, 0xff, 0xff, 0xff, 0x3f, 0xfc, 0xe0, 0x0f, 0x00, 0x00, 0x00, 0x00,
   0x00, 0x00, 0x00, 0x00, 0xfe, 0xff, 0xff, 0xff, 0x3f, 0xfc, 0xe0, 0x07,
   0x00, 0x00, 0x00, 0x00, 0x00, 0x00, 0x00, 0x00, 0xfe, 0xff, 0xff, 0xff,
   0x3f, 0xfc, 0xe0, 0x03, 0x00, 0x00, 0x00, 0x00, 0x00, 0x00, 0x00, 0x00,
   0xfe, 0xff, 0xff, 0xff, 0x3f, 0xfc, 0xe0, 0x01, 0x00, 0x00, 0x00, 0x00,
   0x00, 0x00, 0x00, 0x00, 0xfe, 0xff, 0xff, 0xff, 0x3f, 0xfc, 0xe0, 0x01,
   0x00, 0x00, 0x00, 0x00, 0x00, 0x00, 0x00, 0x00, 0xfe, 0xff, 0xff, 0xff,
   0x3f, 0xfc, 0xe0, 0x01, 0x00, 0x00, 0x00, 0x00, 0x00, 0x00, 0x00, 0x00,
   0xfe, 0xff, 0xff, 0xff, 0x3f, 0xfc, 0xe0, 0x81, 0xff, 0xff, 0xff, 0xff,
   0xef, 0xff, 0xff, 0xff, 0xfe, 0xff, 0xff, 0xff, 0x3f, 0xfc, 0xe0, 0x81,
   0xff, 0xff, 0xff, 0xff, 0xef, 0xff, 0xff, 0xff, 0xfe, 0xff, 0xff, 0xff,
   0x3f, 0xfc, 0xe0, 0x81, 0xff, 0xff, 0xff, 0xff, 0xef, 0xff, 0xff, 0xff,
   0xfe, 0xff, 0xff, 0xff, 0x3f, 0xfc, 0xe0, 0x81, 0xff, 0xff, 0xff, 0xff,
   0xef, 0xff, 0xff, 0xff, 0xfe, 0xff, 0xff, 0xff, 0x3f, 0xfc, 0xe0, 0x81,
   0x3f, 0x00, 0x00, 0x00, 0x00, 0x00, 0x00, 0x00, 0xfe, 0xff, 0xff, 0xff,
   0x3f, 0xfc, 0xe0, 0x81, 0x1f, 0x00, 0x00, 0x00, 0x00, 0x00, 0x00, 0x00,
   0xfe, 0xff, 0xff, 0xff, 0x3f, 0xfc, 0xe0, 0x81, 0x0f, 0x00, 0x00, 0x00,
   0x00, 0x00, 0x00, 0x00, 0xfe, 0xff, 0xff, 0xff, 0x3f, 0xfc, 0xe0, 0x81,
   0x07, 0x00, 0x00, 0x00, 0x00, 0x00, 0x00, 0x00, 0xfe, 0xff, 0xff, 0xff,
   0x3f, 0xfc, 0xe0, 0x81, 0x07, 0x00, 0x00, 0x00, 0x00, 0x00, 0x00, 0x00,
   0xfe, 0xff, 0xff, 0xff, 0x3f, 0xfc, 0xe0, 0x81, 0x07, 0x00, 0x00, 0x00,
   0x00, 0x00, 0x00, 0x00, 0xfe, 0xff, 0xff, 0xff, 0x3f, 0xfc, 0xe0, 0x81,
   0x07, 0x00, 0x00, 0x00, 0x00, 0x00, 0x00, 0x00, 0xfe, 0xff, 0xff, 0xff,
   0x3f, 0xfc, 0xe0, 0x81, 0x07, 0xfc, 0xff, 0xff, 0xef, 0xff, 0xff, 0xff,
   0xfe, 0xff, 0xff, 0xff, 0x3f, 0xfc, 0xe0, 0x81, 0x07, 0xfc, 0xff, 0xff,
   0xef, 0xff, 0xff, 0xff, 0xfe, 0xff, 0xff, 0xff, 0x3f, 0xfc, 0xe0, 0x81,
   0x07, 0xfc, 0xff, 0xff, 0xff, 0xff, 0xff, 0xff, 0xfe, 0xff, 0xff, 0xff,
   0x3f, 0xfc, 0xe0, 0x81, 0x07, 0xfc, 0xff, 0xff, 0xff, 0xff, 0xff, 0xff,
   0xfe, 0xff, 0xff, 0xff, 0x3f, 0xfc, 0xe0, 0x81, 0x07, 0xfc, 0xff, 0xff,
   0xff, 0xff, 0xff, 0xff, 0xfe, 0xff, 0xff, 0xff, 0x3f, 0xfc, 0xe0, 0x81,
   0x07, 0xfc, 0xff, 0xff, 0xff, 0xff, 0xff, 0xff, 0xfe, 0xff, 0xff, 0xff,
   0x3f, 0xfc, 0xe0, 0x81, 0x07, 0xfc, 0xff, 0xff, 0xff, 0xff, 0xff, 0xff,
   0xfe, 0xff, 0xff, 0xff, 0x3f, 0xfc, 0xe0, 0x81, 0x07, 0xfc, 0xff, 0xff,
   0xff, 0xff, 0xff, 0xff, 0xfe, 0xff, 0xff, 0xff, 0x3f, 0xfc, 0xe0, 0x81,
   0x07, 0xfc, 0xff, 0xff, 0xff, 0xff, 0xff, 0xff, 0xfe, 0xff, 0xff, 0xff,
   0x3f, 0xfc, 0xe0, 0x81, 0x07, 0xfc, 0xff, 0xff, 0xff, 0xff, 0xff, 0xff,
   0xfe, 0xff, 0xff, 0xff, 0x3f, 0xfc, 0xe0, 0x81, 0x07, 0xfc, 0xff, 0xff,
   0xef, 0xff, 0xff, 0xff, 0xfe, 0xff, 0xff, 0xff, 0x3f, 0xfc, 0xe0, 0x81,
   0x07, 0xfc, 0xff, 0xff, 0xef, 0xff, 0xff, 0xff, 0xfe, 0xff, 0xff, 0xff,
   0x3f, 0xfc, 0xe0, 0x81, 0x07, 0xfc, 0xff, 0x03, 0x00, 0x00, 0x00, 0x00,
   0xfe, 0xff, 0xff, 0xff, 0x3f, 0xfc, 0xe0, 0x81, 0x07, 0xfc, 0xff, 0x01,
   0x00, 0x00, 0x00, 0x00, 0xfe, 0xff, 0xff, 0xff, 0x3f, 0xfc, 0xe0, 0x81,
   0x07, 0xfc, 0xff, 0x00, 0x00, 0x00, 0x00, 0x00, 0xfe, 0xff, 0xff, 0xff,
   0x3f, 0xfc, 0xe0, 0x81, 0x07, 0xfc, 0x7f, 0x00, 0x00, 0x00, 0x00, 0x00,
   0xfe, 0xff, 0xff, 0xff, 0x3f, 0xfc, 0xe0, 0x81, 0x07, 0xfc, 0x3f, 0x00,
   0x00, 0x00, 0x00, 0x00, 0xfe, 0xff, 0xff, 0xff, 0x3f, 0xfc, 0xe0, 0x81,
   0x07, 0xfc, 0x3f, 0x00, 0x00, 0x00, 0x00, 0x00, 0xfe, 0xff, 0xff, 0xff,
   0x3f, 0xfc, 0xe0, 0x81, 0x07, 0xfc, 0x3f, 0x00, 0x00, 0x00, 0x00, 0x00,
   0xfe, 0xff, 0xff, 0xff, 0x3f, 0xfc, 0xe0, 0x81, 0x07, 0xfc, 0x3f, 0x00,
   0x00, 0x00, 0x00, 0x00, 0xfe, 0xff, 0xff, 0xff, 0x3f, 0xfc, 0xe0, 0x81,
   0x07, 0xfc, 0x3f, 0x00, 0x00, 0x00, 0x00, 0x00, 0xfe, 0xff, 0xff, 0xff,
   0x3f, 0xfc, 0xe0, 0x81, 0x07, 0xfc, 0x3f, 0x80, 0x0f, 0x00, 0x00, 0x00,
   0xfe, 0xff, 0xff, 0xff, 0x3f, 0xfc, 0xe0, 0x81, 0x07, 0xfc, 0x3f, 0x80,
   0x07, 0x00, 0x00, 0x00, 0xfe, 0xff, 0xff, 0xff, 0x3f, 0xfc, 0xe0, 0x81,
   0x07, 0xfc, 0x3f, 0x80, 0x03, 0x00, 0x00, 0x00, 0xfe, 0xff, 0xff, 0xff,
   0x3f, 0xfc, 0xe0, 0x81, 0x07, 0xfc, 0x3f, 0x80, 0x01, 0x00, 0x00, 0x00,
   0xfe, 0xff, 0xff, 0xff, 0x3f, 0xfc, 0xe0, 0x81, 0x07, 0xfc, 0x3f, 0x80,
   0x00, 0x00, 0x00, 0x00, 0x00, 0x04, 0x18, 0xe0, 0x00, 0x00, 0x00, 0x00,
   0x00, 0xf0, 0x0f, 0x00, 0x00, 0x00, 0x00, 0x00, 0xff, 0xff, 0xff, 0xff,
   0x3f, 0xfc, 0xe0, 0x81, 0x07, 0xfc, 0x3f, 0x00, 0x00, 0x00, 0x00, 0x00,
   0xff, 0xff, 0xff, 0xff, 0x3f, 0xfc, 0xe0, 0x81, 0x07, 0xfc, 0x3f, 0x00,
   0x00, 0x00, 0x00, 0x00, 0xff, 0xff, 0xff, 0xff, 0x3f, 0xfc, 0xe0, 0x81,
   0x07, 0xfc, 0x3f, 0x00, 0x00, 0x00, 0x00, 0x00, 0xff, 0xff, 0xff, 0xff,
   0x3f, 0xfc, 0xe0, 0x81, 0x07, 0xfc, 0x3f, 0x00, 0x00, 0x00, 0x00, 0x00,
   0xff, 0xff, 0xff, 0xff, 0x3f, 0xfc, 0xe0, 0x81, 0x07, 0xfc, 0x3f, 0x00,
   0x00, 0x3e, 0x00, 0x00, 0xff, 0xff, 0xff, 0xff, 0x3f, 0xfc, 0xe0, 0x81,
   0x07, 0xfc, 0x3f, 0x00, 0x00, 0x1e, 0x00, 0x00, 0xff, 0xff, 0xff, 0xff,
   0x3f, 0xfc, 0xe0, 0x81, 0x07, 0xfc, 0x3f, 0x00, 0x00, 0x0e, 0x00, 0x00,
   0xff, 0xff, 0xff, 0xff, 0x3f, 0xfc, 0xe0, 0x81, 0x07, 0xfc, 0x3f, 0x00,
   0x00, 0x06, 0x00, 0x00, 0xff, 0xff, 0xff, 0xff, 0x3f, 0xfc, 0xe0, 0x81,
   0x07, 0xfc, 0x3f, 0x00, 0x00, 0x02, 0x00, 0x00, 0xff, 0xff, 0xff, 0xff,
   0x3f, 0xfc, 0xe0, 0x81, 0x07, 0xfc, 0x3f, 0x00, 0x00, 0x00, 0x00, 0x00,
   0xff, 0xff, 0xff, 0xff, 0x3f, 0xfc, 0xe0, 0x81, 0x07, 0xfc, 0x3f, 0x00,
   0x00, 0x00, 0x00, 0x00, 0xff, 0xff, 0xff, 0xff, 0x3f, 0xfc, 0xe0, 0x81,
   0x07, 0xfc, 0x3f, 0x00, 0x00, 0x00, 0x00, 0x00, 0xff, 0xff, 0xff, 0xff,
   0x3f, 0xfc, 0xe0, 0x81, 0x07, 0xfc, 0x3f, 0x00, 0x00, 0x00, 0x00, 0x00,
   0xff, 0xff, 0xff, 0xff, 0x3f, 0xfc, 0xe0, 0x81, 0x07, 0xfc, 0x3f, 0x00,
   0x00, 0x00, 0x00, 0x00, 0xff, 0xff, 0xff, 0xff, 0x3f, 0xfc, 0xe0, 0x81,
   0x07, 0xfc, 0x3f, 0x00, 0x00, 0x00, 0x00, 0x00, 0xff, 0xff, 0xff, 0xff,
   0x3f, 0xfc, 0xe0, 0x81, 0x07, 0xfc, 0x3f, 0x00, 0x00, 0x00, 0x30, 0x00,
   0xff, 0xff, 0xff, 0xff, 0x3f, 0xfc, 0xe0, 0x81, 0x07, 0xfc, 0x3f, 0x00,
   0x00, 0x00, 0x10, 0x00, 0xff, 0xff, 0xff, 0xff, 0x3f, 0xfc, 0xe0, 0x81,
   0x07, 0xfc, 0x3f, 0x00, 0x00, 0x00, 0x00, 0x00, 0xff, 0xff, 0xff, 0xff,
   0x3f, 0xfc, 0xe0, 0x81, 0x07, 0xfc, 0x3f, 0x00, 0x00, 0x00, 0x00, 0x00,
   0xff, 0xff, 0xff, 0xff, 0x3f, 0xfc, 0xe0, 0x81, 0x07, 0xfc, 0x3f, 0x00,
   0x00, 0x00, 0x00, 0x00, 0xff, 0xff, 0xff, 0xff, 0x3f, 0xfc, 0xe0, 0x81,
   0x07, 0xfc, 0x3f, 0x00, 0x00, 0x00, 0x00, 0x00, 0xff, 0xff, 0xff, 0xff,
   0x3f, 0xfc, 0xe0, 0x81, 0x07, 0xfc, 0x3f, 0x00, 0x00, 0x00, 0x00, 0x00,
   0xff, 0xff, 0xff, 0xff, 0x3f, 0xfc, 0xe0, 0x81, 0x07, 0xfc, 0x3f, 0x00,
   0x00, 0x00, 0x00, 0x00, 0xff, 0xff, 0xff, 0xff, 0x3f, 0xfc, 0xe0, 0x81,
   0x07, 0xfc, 0x3f, 0x00, 0x00, 0x00, 0x00, 0x00, 0xff, 0xff, 0xff, 0xff,
   0x3f, 0xfc, 0xe0, 0x81, 0x07, 0xfc, 0x3f, 0x00, 0x00, 0x00, 0x00, 0x00,
   0xff, 0xff, 0xff, 0xff, 0x3f, 0xfc, 0xe0, 0x81, 0x07, 0xfc, 0x3f, 0x00,
   0x00, 0x00, 0x00, 0xc0, 0xff, 0xff, 0xff, 0xff, 0x3f, 0xfc, 0xe0, 0x81,
   0x07, 0xfc, 0x3f, 0x00, 0x00, 0x00, 0x00, 0x40};
