/* XPM */
static char *broken[] = {
/* columns rows colors chars-per-pixel */
"28 32 153 2 ",
"   c black",
".  c #070E07",
"X  c #0D0D0D",
"o  c #001400",
"O  c #001A00",
"+  c #1D1D1D",
"@  c #000035",
"#  c #00003C",
"$  c #3B003C",
"%  c #232523",
"&  c #292629",
"*  c #2C2C2C",
"=  c #213621",
"-  c #213D21",
";  c #333333",
":  c #3B3C36",
">  c #3D3D3D",
",  c #4A003A",
"<  c #005D00",
"1  c #095109",
"2  c #006000",
"3  c #096709",
"4  c #000040",
"5  c #2E2E5A",
"6  c #000079",
"7  c #592A59",
"8  c #424242",
"9  c #4D4D4D",
"0  c #4D524D",
"q  c #535052",
"w  c #5F5F5F",
"e  c #64645F",
"r  c #606060",
"t  c #6D746D",
"y  c #737373",
"u  c #7B7B7B",
"i  c #ED0032",
"p  c #F12C26",
"a  c #F61C4A",
"s  c #F42149",
"d  c #F8204C",
"f  c #F12657",
"g  c #FF0069",
"h  c #E54E49",
"j  c #E4544B",
"k  c #E45450",
"l  c #DB6C76",
"z  c #DC6C78",
"x  c #008600",
"c  c #008E00",
"v  c #009600",
"b  c #009C00",
"n  c #218221",
"m  c #2B8B2B",
"M  c #21A421",
"N  c #00CE00",
"B  c #00D200",
"V  c #09D009",
"C  c #529A52",
"Z  c #6D8B6D",
"A  c #6DAC6D",
"S  c #00008F",
"D  c #0000B1",
"F  c #0000BF",
"G  c #0010B6",
"H  c #2E2EBE",
"J  c #000CFF",
"K  c #0010FF",
"L  c #0033E7",
"P  c #0033EB",
"I  c #002EFF",
"U  c #0031FF",
"Y  c #2C27F0",
"T  c #2E2BF1",
"R  c #5353E6",
"E  c #BF00BF",
"W  c #BE2BBE",
"Q  c #CB009B",
"!  c #FC0997",
"~  c #FE089A",
"^  c #BF00C2",
"/  c #FF00CE",
"(  c #FF00D4",
")  c #F02AC2",
"_  c #FF00F2",
"`  c #FF00FE",
"'  c #EF2DF3",
"]  c #EF2EF8",
"[  c #F32DF2",
"{  c #0097FF",
"}  c #009AFD",
"|  c #838383",
" . c #848884",
".. c #8E8E8E",
"X. c #908E90",
"o. c #9E8F9E",
"O. c #939293",
"+. c #91919E",
"@. c #9B9B9B",
"#. c #A09E9D",
"$. c #90AE90",
"%. c #9EB49E",
"&. c #9191A0",
"*. c #9191BF",
"=. c #A09DA0",
"-. c #BE90BE",
";. c #A3A3A2",
":. c #ACACAC",
">. c #A0B5A0",
",. c #A0B8A0",
"<. c #B0B0AE",
"1. c #B4B4B5",
"2. c #B6BDB6",
"3. c #BABAB6",
"4. c #BEBEBE",
"5. c #CF918D",
"6. c #CF8D9D",
"7. c #CB9C9A",
"8. c #CAA19D",
"9. c #CDA1A0",
"0. c #C3B4B3",
"q. c #C2B9B7",
"w. c #C6BAB9",
"e. c #C4C4BF",
"r. c #918ECF",
"t. c #9191C0",
"y. c #9190CF",
"u. c #928FD0",
"i. c #9291D1",
"p. c #A0A0CF",
"a. c #BCBCCB",
"s. c #CE8FC0",
"d. c #CF90CF",
"f. c #CE90D1",
"g. c #C0BFC0",
"h. c #BEC3C3",
"j. c #BEC8C8",
"k. c #C2C2C2",
"l. c #C4C8C7",
"z. c #C7C5C8",
"x. c #C0C9C9",
"c. c #CBCBCB",
"v. c #D3D4D3",
"b. c #D3D8D5",
"n. c #DBDBDB",
"m. c #E4E4E4",
"M. c #EDEDEC",
"N. c #F6F6F6",
"B. c #F5F9F5",
"V. c #F8F7F8",
"C. c #F5F8F8",
"Z. c #FDFDFD",
"A. c None",
/* pixels */
"                                      + r | A.A.A.A.A.A.",
"  X * > > > > > > > > > > > > > > > > 9 y | A.A.A.A.A.A.",
"  * X.w.a.k.k.h.g.g.g.g.k.g.g.k.e.a.k.<.X.u u u A.A.A.A.",
"  > l.Z.B.N.N.N.V.V.V.V.V.V.N.N.N.N.N.n.@.| @.@.A.A.A.A.",
"  > h.Z.m.v.v.v.v.v.v.v.v.v.v.v.v.v.v.4.X.@.c.c.@.u A.A.",
"  > h.N.v.3.4.w.g.3.>.$.$.%.3.k.k.3.g.:...;.M.M.3.@.A.A.",
"  > h.N.v.4.4.k.z.>.C m m C >.z.k.k.k.:...;.m.Z.M.v.@.| ",
"  > w.N.v.4.h.2.>.A M v x n Z =.1.k.k.:.y y ;.k.k.;.u r ",
"  > k.N.v.g.g.>.C M V N b 3 - q #.k.l.@.8 % ; : > ; & + ",
"  > a.N.v.g.z.$.m c N B b < o & O.z.k.@.0 & & * ; & X   ",
"  > e.N.v.g.k.$.m x b b c < o & X.k.l.1.@.X...@.3.X.*   ",
"  : e.N.v.g.k.%.C n 3 < 2 1 = q #.z.e.e.z.z.l.n.Z.k.>   ",
"  > h.N.v.4.g.2.,.Z - o O = t ;.q.e.e.e.e.z.z.n.Z.k.>   ",
"  > k.N.v.4.h.k.z.=.q * * q =.a.p.y.y.y.y.*.O.<.M.c.9   ",
"  > k.N.v.4.h.k.k.3.@.X.O.#.3.p.R T T T T H 5 r c.M.A.A.",
"  > 4.N.v.0.7.7.q.k.l.z.l.l.e.r.T J I U K F @ : e.Z.A.A.",
"  > h.C.v.7.h h 7.j.x.k.l.k.e.r.Y I { } U F @ : e.Z.A.A.",
"  > 4.B.v.6.f a z 8.q.h.e.e.e.y.T U } } L D # > l.Z.A.A.",
"  > h.B.b.s.) ! s j 8.j.k.e.e.y.T K U L G S A.A.A.A.A.A.",
"  > 4.B.b.f.] / g s l 8.q.k.l.t.H F F D S 6 A.A.A.A.A.A.",
"  > k.B.b.d.' _ / ! s j 8.x.x.&.5 # # 4 A.A.A.A.Z.k.>   ",
"  > 4.B.b.d.' ` ` ( g s z 9.w.@.:       A.A.A.A.Z.k.>   ",
"  > k.B.b.d.[ ` ` ` ( ~ d k 8.1.A.A.A.A.A.A.w.v.V.k.>   ",
"  : h.B.b.-.W E E ^ ^ Q i p 5.x.A.A.A.A.A.A.h.v.N.w.>   ",
"  > a.B.b.o.7 $ $ $ $ , A.A.A.A.A.A.A.A.A.A.4.v.N.h.>   ",
"  > k.V.b.@.0 % .       A.A.A.A.A.A.A.A.A.A.3.v.N.h.>   ",
"  > k.N.v.1.@. .A.A.A.A.A.A.A.A.A.A.w.4.a.3.4.v.N.h.>   ",
"  > k.Z.n.c.z.z.A.A.A.A.A.A.A.A.A.A.b.v.v.v.v.m.V.k.>   ",
"  > l.Z.B.M.A.A.A.A.A.A.A.A.A.A.Z.Z.V.N.N.N.N.C.Z.l.>   ",
"  * X.c.M.Z.A.A.A.A.A.A.A.A.A.A.k.k.h.k.h.k.h.w.w.X.*   ",
"  X * 9 A.A.A.A.A.A.A.A.A.A.A.A.8 > > > > > > > > * X   ",
"        A.A.A.A.A.A.A.A.A.A.A.A.                        "
};
